{
	"asset":{
		"generator":"Khronos glTF Blender I/O v3.6.27",
		"version":"2.0"
	},
	"scene":0,
	"scenes":[
		{
			"name":"Scene",
			"nodes":[
				0,
				1,
				2,
				3,
				4
			]
		}
	],
	"nodes":[
		{
			"mesh":0,
			"name":"tank",
			"scale":[
				3,
				3,
				3
			],
			"translation":[
				-4.88389778137207,
				1.7786409854888916,
				6.704706192016602
			]
		},
		{
			"mesh":1,
			"name":"floor",
			"scale":[
				10,
				2.529998540878296,
				10
			],
			"translation":[
				2.1168158054351807,
				1.2502206563949585,
				-0.05609843134880066
			]
		},
		{
			"mesh":2,
			"name":"tank.001",
			"scale":[
				3,
				3,
				3
			],
			"translation":[
				-4.88389778137207,
				1.7786409854888916,
				1.9887839555740356
			]
		},
		{
			"mesh":3,
			"name":"tank.002",
			"scale":[
				3,
				3,
				3
			],
			"translation":[
				-4.88389778137207,
				1.7786409854888916,
				-2.7202160358428955
			]
		},
		{
			"mesh":4,
			"name":"tank.003",
			"scale":[
				3,
				3,
				3
			],
			"translation":[
				-4.88389778137207,
				1.7786409854888916,
				-7.481950283050537
			]
		}
	],
	"materials":[
		{
			"doubleSided":true,
			"name":"Material",
			"pbrMetallicRoughness":{
				"baseColorFactor":[
					0.800000011920929,
					0.800000011920929,
					0.800000011920929,
					1
				],
				"metallicFactor":0,
				"roughnessFactor":0.5
			}
		}
	],
	"meshes":[
		{
			"name":"Cube",
			"primitives":[
				{
					"attributes":{
						"POSITION":0,
						"NORMAL":1,
						"TEXCOORD_0":2
					},
					"indices":3,
					"material":0
				}
			]
		},
		{
			"name":"Plane",
			"primitives":[
				{
					"attributes":{
						"POSITION":4,
						"NORMAL":5,
						"TEXCOORD_0":6
					},
					"indices":7
				}
			]
		},
		{
			"name":"Cube.006",
			"primitives":[
				{
					"attributes":{
						"POSITION":8,
						"NORMAL":9,
						"TEXCOORD_0":10
					},
					"indices":3,
					"material":0
				}
			]
		},
		{
			"name":"Cube.007",
			"primitives":[
				{
					"attributes":{
						"POSITION":11,
						"NORMAL":12,
						"TEXCOORD_0":13
					},
					"indices":3,
					"material":0
				}
			]
		},
		{
			"name":"Cube.008",
			"primitives":[
				{
					"attributes":{
						"POSITION":14,
						"NORMAL":15,
						"TEXCOORD_0":16
					},
					"indices":3,
					"material":0
				}
			]
		}
	],
	"accessors":[
		{
			"bufferView":0,
			"componentType":5126,
			"count":18377,
			"max":[
				0.44999998807907104,
				1.7765624523162842,
				0.760066568851471
			],
			"min":[
				-0.44999998807907104,
				-0.20218533277511597,
				-0.7691575288772583
			],
			"type":"VEC3"
		},
		{
			"bufferView":1,
			"componentType":5126,
			"count":18377,
			"type":"VEC3"
		},
		{
			"bufferView":2,
			"componentType":5126,
			"count":18377,
			"type":"VEC2"
		},
		{
			"bufferView":3,
			"componentType":5123,
			"count":37854,
			"type":"SCALAR"
		},
		{
			"bufferView":4,
			"componentType":5126,
			"count":4,
			"max":[
				1.399999976158142,
				0,
				1.399999976158142
			],
			"min":[
				-1.399999976158142,
				0,
				-1.399999976158142
			],
			"type":"VEC3"
		},
		{
			"bufferView":5,
			"componentType":5126,
			"count":4,
			"type":"VEC3"
		},
		{
			"bufferView":6,
			"componentType":5126,
			"count":4,
			"type":"VEC2"
		},
		{
			"bufferView":7,
			"componentType":5123,
			"count":6,
			"type":"SCALAR"
		},
		{
			"bufferView":8,
			"componentType":5126,
			"count":18377,
			"max":[
				0.44999998807907104,
				1.7765624523162842,
				0.760066568851471
			],
			"min":[
				-0.44999998807907104,
				-0.20218533277511597,
				-0.7691575288772583
			],
			"type":"VEC3"
		},
		{
			"bufferView":9,
			"componentType":5126,
			"count":18377,
			"type":"VEC3"
		},
		{
			"bufferView":10,
			"componentType":5126,
			"count":18377,
			"type":"VEC2"
		},
		{
			"bufferView":11,
			"componentType":5126,
			"count":18377,
			"max":[
				0.44999998807907104,
				1.7765624523162842,
				0.760066568851471
			],
			"min":[
				-0.44999998807907104,
				-0.20218533277511597,
				-0.7691575288772583
			],
			"type":"VEC3"
		},
		{
			"bufferView":12,
			"componentType":5126,
			"count":18377,
			"type":"VEC3"
		},
		{
			"bufferView":13,
			"componentType":5126,
			"count":18377,
			"type":"VEC2"
		},
		{
			"bufferView":14,
			"componentType":5126,
			"count":18377,
			"max":[
				0.44999998807907104,
				1.7765624523162842,
				0.760066568851471
			],
			"min":[
				-0.44999998807907104,
				-0.20218533277511597,
				-0.7691575288772583
			],
			"type":"VEC3"
		},
		{
			"bufferView":15,
			"componentType":5126,
			"count":18377,
			"type":"VEC3"
		},
		{
			"bufferView":16,
			"componentType":5126,
			"count":18377,
			"type":"VEC2"
		}
	],
	"bufferViews":[
		{
			"buffer":0,
			"byteLength":220524,
			"byteOffset":0,
			"target":34962
		},
		{
			"buffer":0,
			"byteLength":220524,
			"byteOffset":220524,
			"target":34962
		},
		{
			"buffer":0,
			"byteLength":147016,
			"byteOffset":441048,
			"target":34962
		},
		{
			"buffer":0,
			"byteLength":75708,
			"byteOffset":588064,
			"target":34963
		},
		{
			"buffer":0,
			"byteLength":48,
			"byteOffset":663772,
			"target":34962
		},
		{
			"buffer":0,
			"byteLength":48,
			"byteOffset":663820,
			"target":34962
		},
		{
			"buffer":0,
			"byteLength":32,
			"byteOffset":663868,
			"target":34962
		},
		{
			"buffer":0,
			"byteLength":12,
			"byteOffset":663900,
			"target":34963
		},
		{
			"buffer":0,
			"byteLength":220524,
			"byteOffset":663912,
			"target":34962
		},
		{
			"buffer":0,
			"byteLength":220524,
			"byteOffset":884436,
			"target":34962
		},
		{
			"buffer":0,
			"byteLength":147016,
			"byteOffset":1104960,
			"target":34962
		},
		{
			"buffer":0,
			"byteLength":220524,
			"byteOffset":1251976,
			"target":34962
		},
		{
			"buffer":0,
			"byteLength":220524,
			"byteOffset":1472500,
			"target":34962
		},
		{
			"buffer":0,
			"byteLength":147016,
			"byteOffset":1693024,
			"target":34962
		},
		{
			"buffer":0,
			"byteLength":220524,
			"byteOffset":1840040,
			"target":34962
		},
		{
			"buffer":0,
			"byteLength":220524,
			"byteOffset":2060564,
			"target":34962
		},
		{
			"buffer":0,
			"byteLength":147016,
			"byteOffset":2281088,
			"target":34962
		}
	],
	"buffers":[
		{
			"byteLength":2428104,
			"uri":"data:application/octet-stream;base64,"
		}
	]
}
